<svg width="15" height="16" viewBox="0 0 15 16" fill="none" xmlns="http://www.w3.org/2000/svg">
<path d="M9.35285 12.2007C8.36566 12.2007 7.55566 13.036 7.55566 14.0485C7.55566 15.061 8.36566 15.8963 9.35285 15.8963C10.34 15.8963 11.15 15.061 11.15 14.0485C11.1754 13.036 10.3654 12.2007 9.35285 12.2007ZM9.35285 15.0104C8.8466 15.0104 8.4416 14.5801 8.4416 14.0485C8.4416 13.5169 8.8466 13.0866 9.35285 13.0866C9.8591 13.0866 10.2641 13.5169 10.2641 14.0485C10.2894 14.5801 9.8591 15.0104 9.35285 15.0104Z" fill="black"/>
<path d="M3.60676 12.2007C2.61957 12.2007 1.80957 13.036 1.80957 14.0485C1.80957 15.061 2.61957 15.8963 3.60676 15.8963C4.59394 15.8963 5.40394 15.061 5.40394 14.0485C5.42925 13.036 4.61926 12.2007 3.60676 12.2007ZM3.60676 15.0104C3.10051 15.0104 2.69551 14.5801 2.69551 14.0485C2.69551 13.5169 3.10051 13.0866 3.60676 13.0866C4.11301 13.0866 4.51801 13.5169 4.51801 14.0485C4.54332 14.5801 4.11301 15.0104 3.60676 15.0104Z" fill="black"/>
<path d="M13.6307 0.329102H12.0107C11.631 0.329102 11.3019 0.607539 11.2513 0.987226L10.7957 4.32848H0.847857C0.620044 4.32848 0.417544 4.42973 0.290982 4.60691C0.164419 4.7841 0.113794 5.01191 0.164419 5.21441V5.23973L1.70848 10.0238C1.78442 10.3275 2.06286 10.5553 2.41723 10.5553H9.88442C10.4413 10.5553 10.8969 10.1503 10.9729 9.59347L12.1372 1.18973H13.656C13.9091 1.18973 14.1116 0.987226 14.1116 0.734101C14.1116 0.480977 13.8838 0.329102 13.6307 0.329102ZM10.0616 9.46691C10.0363 9.56816 9.96035 9.66941 9.83379 9.66941H2.49317L1.05036 5.21441H10.6438L10.0616 9.46691Z" fill="black"/>
</svg>
