<svg width="18" height="11" viewBox="0 0 18 11" fill="none" xmlns="http://www.w3.org/2000/svg">
<path d="M9 4.03125C7.90312 4.03125 7.03125 4.93125 7.03125 6C7.03125 7.06875 7.93125 7.96875 9 7.96875C10.0687 7.96875 10.9687 7.06875 10.9687 6C10.9687 4.93125 10.0969 4.03125 9 4.03125ZM9 6.98438C8.46562 6.98438 8.01562 6.53437 8.01562 6C8.01562 5.46563 8.46562 5.01562 9 5.01562C9.53437 5.01562 9.98437 5.46563 9.98437 6C9.98437 6.53437 9.53437 6.98438 9 6.98438Z" fill="black"/>
<path d="M17.5501 5.6624C15.6938 2.7374 12.4876 0.993652 9.0001 0.993652C5.5126 0.993652 2.30635 2.7374 0.450098 5.6624C0.337598 5.85928 0.337598 6.1124 0.450098 6.30928C2.30635 9.23428 5.5126 10.978 9.0001 10.978C12.4876 10.978 15.6938 9.23428 17.5501 6.30928C17.6907 6.1124 17.6907 5.85928 17.5501 5.6624ZM9.0001 9.99365C5.93447 9.99365 3.09385 8.50303 1.40635 5.97178C3.09385 3.46865 5.93447 1.97803 9.0001 1.97803C12.0657 1.97803 14.9063 3.46865 16.5938 5.97178C14.9063 8.50303 12.0657 9.99365 9.0001 9.99365Z" fill="black"/>
</svg>
