<svg width="21" height="20" viewBox="0 0 21 20" fill="none" xmlns="http://www.w3.org/2000/svg">
<path d="M16.8844 4.911C16.8844 5.06121 16.8548 5.20996 16.7973 5.34873C16.7399 5.48752 16.6555 5.61362 16.5494 5.71984C16.4432 5.82606 16.3171 5.91031 16.1782 5.9678C16.0395 6.02529 15.8908 6.05488 15.7406 6.05488C15.5903 6.05488 15.4416 6.02529 15.3028 5.9678C15.164 5.91031 15.0379 5.82606 14.9317 5.71984C14.8254 5.61362 14.7412 5.48752 14.6838 5.34873C14.6262 5.20996 14.5967 5.06121 14.5967 4.911C14.5967 4.60762 14.7171 4.31667 14.9317 4.10215C15.1463 3.88763 15.4372 3.76711 15.7406 3.76711C16.0439 3.76711 16.3349 3.88763 16.5494 4.10215C16.7639 4.31667 16.8844 4.60762 16.8844 4.911ZM20.5162 10.0745V10.0893L20.4507 14.235C20.4341 15.7301 19.8327 17.1593 18.7755 18.2166C17.7185 19.274 16.2894 19.8756 14.7943 19.8927L10.6338 19.9569H10.619L6.47335 19.8914C4.97824 19.8747 3.54905 19.2734 2.49168 18.2164C1.43429 17.1592 0.832716 15.7301 0.8157 14.235L0.751465 10.0745V10.0597L0.816935 5.91405C0.833624 4.41894 1.43488 2.98975 2.49204 1.93238C3.54919 0.874993 4.97824 0.273417 6.47335 0.256407L10.6338 0.192169H10.6486L14.7943 0.257642C16.2894 0.274331 17.7186 0.875586 18.7759 1.93274C19.8333 2.98989 20.4349 4.41894 20.452 5.91405L20.5162 10.0745ZM18.6756 10.0745L18.6114 5.94247C18.5998 4.92616 18.1909 3.95475 17.4723 3.23607C16.7536 2.5174 15.7822 2.10855 14.7659 2.097L10.6338 2.03276L6.50176 2.097C5.48546 2.10855 4.51405 2.5174 3.79537 3.23607C3.0767 3.95475 2.66784 4.92616 2.65629 5.94247L2.59206 10.0745L2.65629 14.2066C2.66784 15.2229 3.0767 16.1943 3.79537 16.913C4.51405 17.6317 5.48546 18.0405 6.50176 18.0521L10.6338 18.1163L14.7659 18.0521C15.7822 18.0405 16.7536 17.6317 17.4723 16.913C18.1909 16.1943 18.5998 15.2229 18.6114 14.2066L18.6756 10.0745ZM15.7084 10.0745C15.7084 11.4204 15.1738 12.7111 14.2221 13.6628C13.2705 14.6145 11.9797 15.1491 10.6338 15.1491C9.28796 15.1491 7.99721 14.6145 7.04554 13.6628C6.09387 12.7111 5.55923 11.4204 5.55923 10.0745C5.55923 8.72866 6.09387 7.43791 7.04554 6.48624C7.99721 5.53457 9.28796 4.99994 10.6338 4.99994C11.9797 4.99994 13.2705 5.53457 14.2221 6.48624C15.1738 7.43791 15.7084 8.72866 15.7084 10.0745ZM13.8678 10.0745C13.8678 9.21681 13.5272 8.39423 12.9206 7.78774C12.3141 7.18124 11.4915 6.84052 10.6338 6.84052C9.77611 6.84052 8.95353 7.18124 8.34703 7.78774C7.74054 8.39423 7.39982 9.21681 7.39982 10.0745C7.39982 10.9322 7.74054 11.7548 8.34703 12.3613C8.95353 12.9678 9.77611 13.3085 10.6338 13.3085C11.4915 13.3085 12.3141 12.9678 12.9206 12.3613C13.5272 11.7548 13.8678 10.9322 13.8678 10.0745Z" fill="white"/>
</svg>
