<svg width="92" height="40" viewBox="0 0 92 40" fill="none" xmlns="http://www.w3.org/2000/svg">
<path d="M51.328 16V4.8H55.104C56.0747 4.8 56.9013 4.96 57.584 5.28C58.2667 5.59467 58.8187 6.02133 59.24 6.56C59.6667 7.09333 59.976 7.69333 60.168 8.36C60.3653 9.02133 60.464 9.70133 60.464 10.4C60.464 11.04 60.3707 11.688 60.184 12.344C60.0027 13 59.704 13.6053 59.288 14.16C58.872 14.7093 58.3147 15.1547 57.616 15.496C56.9227 15.832 56.064 16 55.04 16H51.328ZM53.4 14.032H55.256C55.8267 14.032 56.3067 13.9253 56.696 13.712C57.0853 13.4933 57.3973 13.208 57.632 12.856C57.872 12.4987 58.0453 12.1067 58.152 11.68C58.264 11.248 58.32 10.8213 58.32 10.4C58.32 9.952 58.264 9.512 58.152 9.08C58.04 8.648 57.8667 8.256 57.632 7.904C57.3973 7.552 57.0987 7.272 56.736 7.064C56.3733 6.856 55.9387 6.752 55.432 6.752H53.4V14.032ZM62.6249 16V4.8H70.1929V6.768H64.6969V9.232H67.9529V11.2H64.6969V14.016H70.5289V16H62.6249ZM72.5468 16V4.8H80.1148V6.768H74.6188V9.232H77.8748V11.2H74.6188V14.016H80.4508V16H72.5468ZM82.4686 16V4.8H87.1966C88.1406 4.8 88.89 4.97333 89.4446 5.32C89.9993 5.66133 90.3966 6.10133 90.6366 6.64C90.8766 7.17333 90.9966 7.73067 90.9966 8.312C90.9966 8.71733 90.9246 9.128 90.7806 9.544C90.642 9.95467 90.4206 10.3333 90.1166 10.68C89.818 11.0213 89.426 11.2987 88.9406 11.512C88.4606 11.72 87.8793 11.824 87.1966 11.824H84.5406V16H82.4686ZM84.5406 9.872H87.2926C87.6766 9.872 87.9833 9.79467 88.2126 9.64C88.4473 9.48 88.6153 9.28 88.7166 9.04C88.818 8.8 88.8686 8.55733 88.8686 8.312C88.8686 8.088 88.8206 7.856 88.7246 7.616C88.634 7.37067 88.474 7.16533 88.2446 7C88.0153 6.83467 87.698 6.752 87.2926 6.752H84.5406V9.872Z" fill="white"/>
<path d="M57.9746 30.6348C57.9746 31.5996 57.7988 32.4062 57.4473 33.0547C57.0957 33.6992 56.5859 34.1855 55.918 34.5137C55.2539 34.8379 54.4473 35 53.498 35H51.1719V26.4336H53.7559C54.627 26.4336 55.377 26.5938 56.0059 26.9141C56.6348 27.2305 57.1191 27.7012 57.459 28.3262C57.8027 28.9473 57.9746 29.7168 57.9746 30.6348ZM56.9258 30.6699C56.9258 29.9004 56.7969 29.2656 56.5391 28.7656C56.2852 28.2656 55.9102 27.8945 55.4141 27.6523C54.9219 27.4062 54.3184 27.2832 53.6035 27.2832H52.168V34.1445H53.3809C54.5605 34.1445 55.4453 33.8535 56.0352 33.2715C56.6289 32.6895 56.9258 31.8223 56.9258 30.6699ZM62.1348 28.4727C62.9004 28.4727 63.4688 28.6445 63.8398 28.9883C64.2109 29.332 64.3965 29.8809 64.3965 30.6348V35H63.6875L63.5 34.0508H63.4531C63.2734 34.2852 63.0859 34.4824 62.8906 34.6426C62.6953 34.7988 62.4688 34.918 62.2109 35C61.957 35.0781 61.6445 35.1172 61.2734 35.1172C60.8828 35.1172 60.5352 35.0488 60.2305 34.9121C59.9297 34.7754 59.6914 34.5684 59.5156 34.291C59.3438 34.0137 59.2578 33.6621 59.2578 33.2363C59.2578 32.5957 59.5117 32.1035 60.0195 31.7598C60.5273 31.416 61.3008 31.2285 62.3398 31.1973L63.4473 31.1504V30.7578C63.4473 30.2031 63.3281 29.8145 63.0898 29.5918C62.8516 29.3691 62.5156 29.2578 62.082 29.2578C61.7461 29.2578 61.4258 29.3066 61.1211 29.4043C60.8164 29.502 60.5273 29.6172 60.2539 29.75L59.9551 29.0117C60.2441 28.8633 60.5762 28.7363 60.9512 28.6309C61.3262 28.5254 61.7207 28.4727 62.1348 28.4727ZM63.4355 31.8359L62.457 31.877C61.6562 31.9082 61.0918 32.0391 60.7637 32.2695C60.4355 32.5 60.2715 32.8262 60.2715 33.248C60.2715 33.6152 60.3828 33.8867 60.6055 34.0625C60.8281 34.2383 61.123 34.3262 61.4902 34.3262C62.0605 34.3262 62.5273 34.168 62.8906 33.8516C63.2539 33.5352 63.4355 33.0605 63.4355 32.4277V31.8359ZM70.5547 33.2422C70.5547 33.6523 70.4512 33.998 70.2441 34.2793C70.041 34.5566 69.748 34.7656 69.3652 34.9062C68.9863 35.0469 68.5332 35.1172 68.0059 35.1172C67.5566 35.1172 67.168 35.082 66.8398 35.0117C66.5117 34.9414 66.2246 34.8418 65.9785 34.7129V33.8164C66.2402 33.9453 66.5527 34.0625 66.916 34.168C67.2793 34.2734 67.6504 34.3262 68.0293 34.3262C68.584 34.3262 68.9863 34.2363 69.2363 34.0566C69.4863 33.877 69.6113 33.6328 69.6113 33.3242C69.6113 33.1484 69.5605 32.9941 69.459 32.8613C69.3613 32.7246 69.1953 32.5938 68.9609 32.4688C68.7266 32.3398 68.4023 32.1992 67.9883 32.0469C67.5781 31.8906 67.2227 31.7363 66.9219 31.584C66.625 31.4277 66.3945 31.2383 66.2305 31.0156C66.0703 30.793 65.9902 30.5039 65.9902 30.1484C65.9902 29.6055 66.209 29.1895 66.6465 28.9004C67.0879 28.6074 67.666 28.4609 68.3809 28.4609C68.7676 28.4609 69.1289 28.5 69.4648 28.5781C69.8047 28.6523 70.1211 28.7539 70.4141 28.8828L70.0859 29.6621C69.8203 29.5488 69.5371 29.4531 69.2363 29.375C68.9355 29.2969 68.6289 29.2578 68.3164 29.2578C67.8672 29.2578 67.5215 29.332 67.2793 29.4805C67.041 29.6289 66.9219 29.832 66.9219 30.0898C66.9219 30.2891 66.9766 30.4531 67.0859 30.582C67.1992 30.7109 67.3789 30.832 67.625 30.9453C67.8711 31.0586 68.1953 31.1914 68.5977 31.3438C69 31.4922 69.3477 31.6465 69.6406 31.8066C69.9336 31.9629 70.1582 32.1543 70.3145 32.3809C70.4746 32.6035 70.5547 32.8906 70.5547 33.2422ZM73.0918 25.8828V28.6074C73.0918 28.7637 73.0879 28.9219 73.0801 29.082C73.0723 29.2383 73.0586 29.3828 73.0391 29.5156H73.1035C73.2363 29.2891 73.4043 29.0996 73.6074 28.9473C73.8145 28.791 74.0488 28.6738 74.3105 28.5957C74.5723 28.5137 74.8496 28.4727 75.1426 28.4727C75.6582 28.4727 76.0879 28.5547 76.4316 28.7188C76.7793 28.8828 77.0391 29.1367 77.2109 29.4805C77.3867 29.8242 77.4746 30.2695 77.4746 30.8164V35H76.5137V30.8809C76.5137 30.3457 76.3906 29.9453 76.1445 29.6797C75.9023 29.4141 75.5293 29.2812 75.0254 29.2812C74.5488 29.2812 74.168 29.373 73.8828 29.5566C73.6016 29.7363 73.3984 30.002 73.2734 30.3535C73.1523 30.7051 73.0918 31.1348 73.0918 31.6426V35H72.1191V25.8828H73.0918Z" fill="white"/>
<rect width="40" height="40" fill="white"/>
<path d="M10 10H19.5C24.7467 10 29 14.2533 29 19.5V19.5C29 24.7467 24.7467 29 19.5 29H10V10Z" fill="#6257FE"/>
</svg>
