<svg width="34" height="31" viewBox="0 0 34 31" fill="none" xmlns="http://www.w3.org/2000/svg">
<path d="M13.0002 28C12.5716 28 12.1073 27.8537 11.7859 27.5246C10.9645 26.7934 10.1431 26.0987 9.42877 25.4771C7.32162 23.6489 5.5002 22.0767 4.21448 20.5045C2.71448 18.6764 2.0002 16.9213 2.0002 14.9835C2.0002 13.0822 2.64305 11.3272 3.82162 10.0475C5.0002 8.73121 6.64305 7.99995 8.42877 7.99995C9.7502 7.99995 11.0002 8.43871 12.0716 9.27966C12.3931 9.5356 12.7145 9.8281 13.0002 10.1572C13.2859 9.8281 13.6073 9.5356 13.9288 9.27966C15.0002 8.43871 16.2145 7.99995 17.5716 7.99995C19.3573 7.99995 20.9645 8.73121 22.1788 10.0475C23.3573 11.3272 24.0002 13.0822 24.0002 14.9835C24.0002 16.9213 23.2859 18.6764 21.7859 20.5045C20.5002 22.0767 18.6788 23.6489 16.5716 25.4771C15.8573 26.0987 15.0359 26.7934 14.2145 27.5246C13.8931 27.8171 13.4288 28 13.0002 28ZM8.42877 9.2431C7.0002 9.2431 5.67877 9.8281 4.7502 10.8884C3.78591 11.9488 3.28591 13.3747 3.28591 14.9469C3.28591 16.5557 3.89305 18.0548 5.17877 19.6636C6.39305 21.1627 8.17877 22.6983 10.2502 24.4899C10.9645 25.1115 11.7859 25.8062 12.6073 26.574C12.8216 26.7568 13.1788 26.7568 13.3931 26.574C14.2502 25.8427 15.0359 25.1115 15.7502 24.4899C17.8216 22.6983 19.6073 21.1627 20.8216 19.6636C22.1073 18.0548 22.7145 16.5557 22.7145 14.9469C22.7145 13.3747 22.1788 11.9488 21.2502 10.8884C20.2859 9.8281 19.0002 9.2431 17.5716 9.2431C16.5002 9.2431 15.5359 9.57216 14.7145 10.2669C14.3573 10.5228 14.0716 10.8519 13.7502 11.2175C13.5716 11.4369 13.2859 11.5831 13.0002 11.5831C12.7145 11.5831 12.4288 11.4369 12.2502 11.2175C11.9645 10.8519 11.6431 10.5228 11.2859 10.2669C10.4645 9.60873 9.5002 9.2431 8.42877 9.2431Z" fill="#212B36"/>
<path fill-rule="evenodd" clip-rule="evenodd" d="M12.2585 9.04497C12.5091 9.24452 12.7619 9.46733 13.0002 9.7136C13.2385 9.46733 13.4913 9.24452 13.7419 9.04497L13.7435 9.04366C14.8653 8.16318 16.1442 7.69995 17.5716 7.69995C19.4444 7.69995 21.1305 8.46871 22.3993 9.84407C23.6343 11.1851 24.3002 13.0154 24.3002 14.9835C24.3002 17.0063 23.5508 18.8263 22.0181 20.6944C20.7379 22.26 18.9398 23.8199 16.8903 25.5978L16.7686 25.7034C16.5209 25.9189 16.2618 26.142 15.995 26.3718C15.4876 26.8086 14.9524 27.2694 14.4152 27.7476C14.04 28.0884 13.5048 28.3 13.0002 28.3C12.5141 28.3 11.969 28.1362 11.579 27.7421C11.0438 27.2658 10.5108 26.8069 10.0054 26.3717C9.73865 26.1421 9.47956 25.919 9.23189 25.7035C9.1912 25.6682 9.15061 25.6329 9.11012 25.5978C7.0607 23.8199 5.26261 22.2601 3.98239 20.6946C2.44959 18.8264 1.7002 17.0064 1.7002 14.9835C1.7002 13.0161 2.36539 11.1867 3.59952 9.8458C4.83546 8.46633 6.55928 7.69995 8.42877 7.69995C9.81948 7.69995 11.1343 8.16257 12.2568 9.04367L12.2585 9.04497ZM3.82162 10.0475C2.64305 11.3272 2.0002 13.0822 2.0002 14.9835C2.0002 16.9213 2.71448 18.6764 4.21448 20.5045C5.47824 22.0499 7.25956 23.5952 9.32105 25.3836L9.42877 25.4771C9.67408 25.6906 9.93203 25.9127 10.1983 26.1419C10.7073 26.5802 11.2466 27.0445 11.7859 27.5246C12.1073 27.8537 12.5716 28 13.0002 28C13.4288 28 13.8931 27.8171 14.2145 27.5246C14.7538 27.0445 15.2931 26.5801 15.8021 26.1419C16.0684 25.9127 16.3263 25.6906 16.5716 25.4771L16.6793 25.3837C18.7408 23.5952 20.5222 22.0499 21.7859 20.5045C23.2859 18.6764 24.0002 16.9213 24.0002 14.9835C24.0002 13.0822 23.3573 11.3272 22.1788 10.0475C20.9645 8.73121 19.3573 7.99995 17.5716 7.99995C16.2145 7.99995 15.0002 8.43871 13.9288 9.27966C13.6818 9.47633 13.4348 9.6946 13.204 9.93445C13.1344 10.0067 13.0664 10.081 13.0002 10.1572C12.934 10.081 12.866 10.0067 12.7964 9.93445C12.5656 9.6946 12.3186 9.47633 12.0716 9.27966C11.0002 8.43871 9.7502 7.99995 8.42877 7.99995C6.64305 7.99995 5.0002 8.73121 3.82162 10.0475ZM4.97214 11.0903C4.06508 12.0877 3.58591 13.4383 3.58591 14.9469C3.58591 16.4694 4.15695 17.9042 5.41247 19.4755C6.58673 20.9249 8.31036 22.4156 10.3452 24.1754L10.4464 24.263C10.5954 24.3926 10.7502 24.5264 10.9084 24.6632C11.5028 25.177 12.1549 25.7407 12.8062 26.3492C12.9092 26.4329 13.0976 26.4317 13.1983 26.3458C13.6996 25.9181 14.1671 25.4988 14.6143 25.0977C14.9361 24.809 15.2474 24.5297 15.5533 24.2636L15.6552 24.1754C17.6901 22.4156 19.4137 20.9249 20.588 19.4754C21.8434 17.9042 22.4145 16.4694 22.4145 14.9469C22.4145 13.4442 21.9031 12.0905 21.0264 11.0882C20.1174 10.0898 18.9122 9.5431 17.5716 9.5431C16.5665 9.5431 15.672 9.84995 14.9082 10.4959L14.899 10.5037L14.8892 10.5107C14.5695 10.7398 14.3094 11.0357 13.9883 11.4011L13.979 11.4116C13.7476 11.6931 13.3807 11.8831 13.0002 11.8831C12.6176 11.8831 12.2487 11.6909 12.0175 11.4069L12.0138 11.4023C11.7408 11.0529 11.4394 10.7459 11.1112 10.5107L11.1046 10.506L11.0983 10.501C10.3264 9.88253 9.42742 9.5431 8.42877 9.5431C7.08392 9.5431 5.84571 10.0928 4.97589 11.0861L4.97214 11.0903ZM13.7502 11.2175L13.7749 11.1894C14.0864 10.835 14.3665 10.5162 14.7145 10.2669C15.5359 9.57216 16.5002 9.2431 17.5716 9.2431C19.0002 9.2431 20.2859 9.8281 21.2502 10.8884C22.1788 11.9488 22.7145 13.3747 22.7145 14.9469C22.7145 16.5557 22.1073 18.0548 20.8216 19.6636C19.6304 21.1342 17.8892 22.6401 15.8678 24.3882L15.7502 24.4899C15.453 24.7485 15.1435 25.0261 14.8216 25.3147C14.3698 25.7199 13.8936 26.1469 13.3931 26.574C13.1788 26.7568 12.8216 26.7568 12.6073 26.574C11.9588 25.9678 11.3103 25.4071 10.7145 24.8921C10.5556 24.7548 10.4005 24.6207 10.2502 24.4899L10.1326 24.3882C8.11124 22.6401 6.37002 21.1342 5.17877 19.6636C3.89305 18.0548 3.28591 16.5557 3.28591 14.9469C3.28591 13.3747 3.78591 11.9488 4.7502 10.8884C5.67877 9.8281 7.0002 9.2431 8.42877 9.2431C9.5002 9.2431 10.4645 9.60873 11.2859 10.2669C11.6431 10.5228 11.9645 10.8519 12.2502 11.2175C12.4288 11.4369 12.7145 11.5831 13.0002 11.5831C13.2859 11.5831 13.5716 11.4369 13.7502 11.2175Z" fill="#212B36"/>
<circle cx="26" cy="8" r="8" fill="#3056D3"/>
<path d="M25.5313 12.1094C25.0156 12.1094 24.556 12.0208 24.1523 11.8437C23.7513 11.6667 23.4323 11.4206 23.1953 11.1055C22.9609 10.7878 22.8333 10.4193 22.8125 10H23.7969C23.8177 10.2578 23.9063 10.4805 24.0625 10.668C24.2188 10.8529 24.4232 10.9961 24.6758 11.0977C24.9284 11.1992 25.2083 11.25 25.5156 11.25C25.8594 11.25 26.1641 11.1901 26.4297 11.0703C26.6953 10.9505 26.9036 10.7839 27.0547 10.5703C27.2057 10.3568 27.2813 10.1094 27.2813 9.82812C27.2813 9.53385 27.2083 9.27474 27.0625 9.05078C26.9167 8.82422 26.7031 8.64714 26.4219 8.51953C26.1406 8.39193 25.7969 8.32812 25.3906 8.32812H24.75V7.46875H25.3906C25.7083 7.46875 25.987 7.41146 26.2266 7.29687C26.4688 7.18229 26.6576 7.02083 26.793 6.8125C26.931 6.60417 27 6.35937 27 6.07812C27 5.80729 26.9401 5.57161 26.8203 5.37109C26.7005 5.17057 26.5313 5.01432 26.3125 4.90234C26.0964 4.79036 25.8411 4.73437 25.5469 4.73437C25.2708 4.73437 25.0104 4.78516 24.7656 4.88672C24.5234 4.98568 24.3255 5.13021 24.1719 5.32031C24.0182 5.50781 23.9349 5.73438 23.9219 6H22.9844C23 5.58073 23.1263 5.21354 23.3633 4.89844C23.6003 4.58073 23.9102 4.33333 24.293 4.15625C24.6784 3.97917 25.1016 3.89062 25.5625 3.89062C26.0573 3.89062 26.4818 3.99089 26.8359 4.19141C27.1901 4.38932 27.4622 4.65104 27.6523 4.97656C27.8424 5.30208 27.9375 5.65365 27.9375 6.03125C27.9375 6.48177 27.819 6.86589 27.582 7.18359C27.3477 7.5013 27.0286 7.72135 26.625 7.84375V7.90625C27.1302 7.98958 27.5247 8.20443 27.8086 8.55078C28.0924 8.89453 28.2344 9.32031 28.2344 9.82812C28.2344 10.263 28.1159 10.6536 27.8789 11C27.6445 11.3437 27.3242 11.6146 26.918 11.8125C26.5117 12.0104 26.0495 12.1094 25.5313 12.1094Z" fill="white"/>
</svg>
