<svg width="31" height="31" viewBox="0 0 31 31" fill="none" xmlns="http://www.w3.org/2000/svg">
<path d="M23.2783 13.0032H22.0596L19.2971 5.97503C19.1346 5.6094 18.7283 5.4469 18.3627 5.56878C17.9971 5.73128 17.8346 6.13753 17.9564 6.50315L20.5158 13.0438H5.44395L8.00332 6.50315C8.16582 6.13753 7.9627 5.73128 7.59707 5.56878C7.23145 5.40628 6.8252 5.6094 6.6627 5.97503L3.9002 13.0032H2.68145C2.07207 13.0032 1.54395 13.4907 1.54395 14.1407V17.5938C1.54395 18.2032 2.03145 18.7313 2.68145 18.7313H2.72207L3.77832 27.9938C3.94082 29.4157 5.15957 30.5125 6.62207 30.5125H19.2971C20.7596 30.5125 21.9783 29.4157 22.1408 27.9938L23.1971 18.7313H23.2377C23.8471 18.7313 24.3752 18.2438 24.3752 17.5938V14.1407C24.4158 13.5313 23.9283 13.0032 23.2783 13.0032ZM3.00645 14.425H22.9939V17.2688H3.00645V14.425ZM20.7596 27.7907C20.6783 28.5219 20.0689 29.05 19.3377 29.05H6.6627C5.93145 29.05 5.32207 28.5219 5.24082 27.7907L4.18457 18.6907H21.8158L20.7596 27.7907Z" fill="#212B36"/>
<path d="M8.73418 25.6375C9.14043 25.6375 9.46543 25.3125 9.46543 24.9062V21.7781C9.46543 21.3719 9.14043 21.0469 8.73418 21.0469C8.32793 21.0469 8.00293 21.3719 8.00293 21.7781V24.9062C8.00293 25.3125 8.32793 25.6375 8.73418 25.6375Z" fill="#212B36"/>
<path d="M17.2654 25.6375C17.6717 25.6375 17.9967 25.3125 17.9967 24.9062V21.7781C17.9967 21.3719 17.6717 21.0469 17.2654 21.0469C16.8592 21.0469 16.5342 21.3719 16.5342 21.7781V24.9062C16.5748 25.3125 16.8998 25.6375 17.2654 25.6375Z" fill="#212B36"/>
<circle cx="23" cy="8" r="8" fill="#3056D3"/>
<path d="M23.6406 4V12H22.6719V5.01562H22.625L20.6719 6.3125V5.32812L22.6719 4H23.6406Z" fill="white"/>
</svg>
