<svg width="20" height="14" viewBox="0 0 20 14" fill="none" xmlns="http://www.w3.org/2000/svg">
<g filter="url(#filter0_d_121_52755)">
<path d="M9.78941 5.40046C9.59434 5.40046 9.39926 5.33284 9.2367 5.1807L4.88011 0.920728C4.76631 0.802396 4.76631 0.616445 4.86385 0.498112C4.97764 0.37978 5.15646 0.37978 5.27025 0.481208L9.62685 4.74118C9.70813 4.8257 9.85443 4.8257 9.95197 4.74118L14.3086 0.481208C14.4224 0.362875 14.6012 0.37978 14.715 0.498112C14.8288 0.616445 14.8125 0.802396 14.6987 0.920728L10.3421 5.16379C10.1796 5.31594 9.98448 5.40046 9.78941 5.40046Z" fill="#212B36"/>
<path fill-rule="evenodd" clip-rule="evenodd" d="M8.95705 5.4667L4.59165 1.19812C4.33143 0.927515 4.33377 0.512326 4.55519 0.243696L4.56492 0.231887L4.57553 0.220855C4.84327 -0.0575644 5.26742 -0.0571462 5.5364 0.182609L5.5433 0.188754L9.78941 4.34069L14.0253 0.198704C14.3263 -0.108224 14.7651 -0.0268578 15.0033 0.220855C15.2926 0.521698 15.2216 0.954046 14.987 1.19798L14.9779 1.20743L10.6155 5.4559C10.3917 5.66539 10.1023 5.80046 9.78941 5.80046C9.49819 5.80046 9.20387 5.69783 8.96337 5.47274L8.95705 5.4667ZM14.3086 0.481208L9.95197 4.74118C9.85443 4.8257 9.70813 4.8257 9.62685 4.74118L5.27025 0.481208C5.15646 0.37978 4.97764 0.37978 4.86385 0.498112C4.76631 0.616445 4.76631 0.802396 4.88011 0.920728L9.2367 5.1807C9.39926 5.33284 9.59434 5.40046 9.78941 5.40046C9.98448 5.40046 10.1796 5.31594 10.3421 5.16379L14.6987 0.920728C14.8125 0.802396 14.8288 0.616445 14.715 0.498112C14.6012 0.37978 14.4224 0.362875 14.3086 0.481208Z" fill="#212B36"/>
</g>
<defs>
<filter id="filter0_d_121_52755" x="0.392578" y="0" width="18.8008" height="13.8005" filterUnits="userSpaceOnUse" color-interpolation-filters="sRGB">
<feFlood flood-opacity="0" result="BackgroundImageFix"/>
<feColorMatrix in="SourceAlpha" type="matrix" values="0 0 0 0 0 0 0 0 0 0 0 0 0 0 0 0 0 0 127 0" result="hardAlpha"/>
<feOffset dy="4"/>
<feGaussianBlur stdDeviation="2"/>
<feComposite in2="hardAlpha" operator="out"/>
<feColorMatrix type="matrix" values="0 0 0 0 0 0 0 0 0 0 0 0 0 0 0 0 0 0 0.25 0"/>
<feBlend mode="normal" in2="BackgroundImageFix" result="effect1_dropShadow_121_52755"/>
<feBlend mode="normal" in="SourceGraphic" in2="effect1_dropShadow_121_52755" result="shape"/>
</filter>
</defs>
</svg>
